HIERARCHY
ROOT Hips
{
	OFFSET	0.00	0.00	0.00
	CHANNELS 6 Xposition Yposition Zposition Zrotation Xrotation Yrotation
	JOINT LeftUpLeg
	{
		OFFSET	 0.126116	-0.014019	-0.065224
		CHANNELS 3 Zrotation Xrotation Yrotation
		JOINT LeftLeg
		{
			OFFSET	 0.000000	 0.000000	 0.569914
			CHANNELS 3 Zrotation Xrotation Yrotation
			JOINT LeftFoot
			{
				OFFSET	 0.000000	 0.000000	 0.544423
				CHANNELS 3 Zrotation Xrotation Yrotation
				JOINT LeftToeBase
				{
					OFFSET	 0.000000	 0.000000	 0.207117
					CHANNELS 3 Zrotation Xrotation Yrotation
					End Site
					{
						OFFSET	 0.000000	 0.000000	 0.207117
					}
				}
			}
		}
	}
	JOINT RightUpLeg
	{
		OFFSET	-0.124023	-0.008373	-0.065224
		CHANNELS 3 Zrotation Xrotation Yrotation
		JOINT RightLeg
		{
			OFFSET	 0.000000	 0.000000	 0.570047
			CHANNELS 3 Zrotation Xrotation Yrotation
			JOINT RightFoot
			{
				OFFSET	 0.000000	 0.000000	 0.544354
				CHANNELS 3 Zrotation Xrotation Yrotation
				JOINT RightToeBase
				{
					OFFSET	 0.000000	 0.000000	 0.207540
					CHANNELS 3 Zrotation Xrotation Yrotation
					End Site
					{
						OFFSET	 0.000000	 0.000000	 0.207540
					}
				}
			}
		}
	}
	JOINT Spine
	{
		OFFSET	 0.000184	-0.007763	 0.117403
		CHANNELS 3 Zrotation Xrotation Yrotation
		JOINT Spine1
		{
			OFFSET	 0.000000	 0.000000	 0.137269
			CHANNELS 3 Zrotation Xrotation Yrotation
			JOINT Spine2
			{
				OFFSET	 0.000000	 0.000000	 0.156879
				CHANNELS 3 Zrotation Xrotation Yrotation
				JOINT LeftShoulder
				{
					OFFSET	 0.080501	-0.002496	 0.160144
					CHANNELS 3 Zrotation Xrotation Yrotation
					JOINT LeftArm
					{
						OFFSET	 0.000000	 0.000000	 0.164363
						CHANNELS 3 Zrotation Xrotation Yrotation
						JOINT LeftForeArm
						{
							OFFSET	 0.000000	 0.000000	 0.364576
							CHANNELS 3 Zrotation Xrotation Yrotation
							JOINT LeftHand
							{
								OFFSET	 0.000000	 0.000000	 0.360812
								CHANNELS 3 Zrotation Xrotation Yrotation
								JOINT LeftHandIndex1
								{
									OFFSET	 0.000000	 0.000000	 0.086006
									CHANNELS 3 Zrotation Xrotation Yrotation
									JOINT LeftHandIndex2
									{
										OFFSET	 0.000000	 0.000000	 0.047236
										CHANNELS 3 Zrotation Xrotation Yrotation
										JOINT LeftHandIndex3
										{
											OFFSET	-0.004284	-0.000551	 0.038166
											CHANNELS 3 Zrotation Xrotation Yrotation
											End Site
											{
												OFFSET	-0.004284	-0.000551	 0.038166
											}
										}
									}
								}
							}
						}
					}
				}
				JOINT Neck
				{
					OFFSET	 0.000000	 0.000000	 0.176489
					CHANNELS 3 Zrotation Xrotation Yrotation
					JOINT Head
					{
						OFFSET	 0.000000	-0.001747	 0.077940
						CHANNELS 3 Zrotation Xrotation Yrotation
						End Site
						{
							OFFSET	 0.000000	-0.001747	 0.077940
						}
					}
				}
				JOINT RightShoulder
				{
					OFFSET	-0.080363	 0.000306	 0.159706
					CHANNELS 3 Zrotation Xrotation Yrotation
					JOINT RightArm
					{
						OFFSET	 0.000000	 0.000000	 0.164196
						CHANNELS 3 Zrotation Xrotation Yrotation
						JOINT RightForeArm
						{
							OFFSET	 0.000000	 0.000000	 0.365611
							CHANNELS 3 Zrotation Xrotation Yrotation
							JOINT RightHand
							{
								OFFSET	 0.000000	 0.000000	 0.360648
								CHANNELS 3 Zrotation Xrotation Yrotation
								JOINT RightHandIndex1
								{
									OFFSET	 0.000000	 0.000000	 0.069977
									CHANNELS 3 Zrotation Xrotation Yrotation
									JOINT RightHandIndex2
									{
										OFFSET	 0.000000	 0.000000	 0.052305
										CHANNELS 3 Zrotation Xrotation Yrotation
										JOINT RightHandIndex3
										{
											OFFSET	 0.009002	-0.000782	 0.042196
											CHANNELS 3 Zrotation Xrotation Yrotation
											End Site
											{
												OFFSET	 0.009002	-0.000782	 0.042196
											}
										}
									}
								}
							}
						}
					}
				}
			}
		}
	}
}
MOTION
Frames:    8
Frame Time: 0.03333334
 0.000292	 0.019709	 1.271255	-0.003237	 0.003205	 0.172683	 0.395401	-1.719486	 177.512800	 1.475179	-11.802330	-0.688755	-7.550333	 70.963730	 1.468163	-2.385833	 28.452760	 0.000004	-0.561047	-1.783247	-177.802000	-1.466060	-11.440290	 0.654782	 7.194312	 70.633670	-1.286814	 2.384658	 28.388730	 0.000004	-5.040258	 2.728076	 0.302897	-2.162397	 3.646950	-0.813693	 6.546796	-4.472790	 1.407353	-91.776210	 78.527430	-180.000000	 48.533450	 36.976400	-62.595920	-8.562369	 0.186136	-0.675362	-31.257770	-18.265890	-4.720700	-2.635965	 4.993658	 6.788941	-5.165319	 0.784187	 3.516649	-5.225038	 0.466231	 0.424329	-0.000002	-3.783157	-0.089647	 6.374483	 4.641253	-0.258603	 89.782160	 78.203900	 179.999900	-64.103100	 42.001220	 57.175340	 8.389037	 3.358680	 7.688690	 32.281880	-18.845770	 9.611509	 6.112037	 4.509576	-0.364401	 4.968462	 1.518543	-9.347576	 5.168945	 0.703820	 2.021906
 0.000305	 0.019594	 1.273271	-0.002650	 0.004295	 0.174532	 0.820437	-1.734624	 177.480300	 1.475393	-11.785060	-0.687718	-7.509934	 70.617750	 1.436219	-2.385833	 28.452760	 0.000004	-0.986815	-1.791797	-177.774600	-1.466360	-11.414690	 0.653277	 7.152947	 70.284900	-1.252205	 2.384658	 28.388730	 0.000004	-12.970850	 2.605571	 0.283569	-2.145923	 4.071175	-0.776466	 6.494600	-5.022109	 1.432377	-91.776190	 78.527450	 180.000000	 48.606940	 36.934240	-62.318940	-12.786860	 0.429538	-3.056548	-37.253550	-27.633340	-7.531995	-2.635965	 4.993658	 6.788941	-5.165319	 0.784187	 3.516649	-5.225038	 0.466231	 0.424329	-0.000002	-3.783157	-0.089647	 6.301430	 4.391525	-0.241866	 89.782110	 78.203870	 180.000000	-63.000350	 41.534930	 58.778470	 12.147590	 4.182997	 10.093280	 38.927320	-27.898610	 12.700910	 6.112037	 4.509576	-0.364401	 4.968462	 1.518543	-9.347576	 5.168945	 0.703820	 2.021906
 0.000309	 0.019538	 1.274301	-0.002317	 0.004868	 0.174205	 1.036289	-1.740582	 177.464800	 1.475545	-11.772490	-0.686963	-7.488561	 70.440360	 1.419335	-2.385833	 28.452760	 0.000004	-1.202671	-1.797158	-177.759700	-1.466485	-11.403600	 0.652626	 7.132543	 70.109020	-1.235216	 2.384658	 28.388730	 0.000004	-16.396010	 2.544033	 0.272967	-2.124712	 4.284208	-0.752991	 6.428883	-5.300683	 1.435879	-91.776220	 78.527470	-180.000000	 48.639550	 36.898460	-62.163350	-14.662410	 0.651223	-4.105686	-40.182540	-31.302020	-9.389200	-2.635965	 4.993658	 6.788941	-5.165319	 0.784187	 3.516649	-5.225038	 0.466231	 0.424329	-0.000002	-3.783157	-0.089647	 6.226320	 4.270580	-0.232390	 89.782170	 78.203890	 179.999900	-62.154060	 41.047840	 59.342340	 13.600260	 5.134840	 12.012410	 42.212990	-31.542990	 14.670090	 6.112037	 4.509576	-0.364401	 4.968462	 1.518543	-9.347576	 5.168945	 0.703820	 2.021906
 0.000310	 0.019486	 1.275299	-0.001978	 0.005422	 0.173067	 1.248558	-1.745428	 177.450400	 1.475720	-11.757990	-0.686093	-7.467183	 70.265000	 1.402465	-2.385833	 28.452760	 0.000004	-1.414742	-1.803214	-177.744400	-1.466594	-11.394180	 0.652072	 7.112870	 69.936940	-1.218899	 2.384658	 28.388730	 0.000004	-19.503770	 2.484245	 0.262164	-2.095421	 4.491197	-0.727192	 6.338592	-5.573141	 1.432919	-91.776290	 78.527450	-179.999900	 48.664750	 36.858600	-61.997590	-16.411450	 0.922243	-5.078440	-43.047720	-34.283610	-11.404830	-2.635965	 4.993658	 6.788941	-5.165319	 0.784187	 3.516649	-5.225038	 0.466231	 0.424329	-0.000002	-3.783157	-0.089647	 6.127821	 4.155903	-0.222560	 89.782170	 78.203890	 179.999900	-60.952850	 40.345070	 59.113880	 14.693170	 6.978751	 15.248960	 45.434380	-34.576320	 16.782340	 6.112037	 4.509576	-0.364401	 4.968462	 1.518543	-9.347576	 5.168945	 0.703820	 2.021906
 0.000307	 0.019432	 1.276416	-0.001579	 0.006040	 0.170765	 1.486054	-1.749375	 177.435100	 1.475959	-11.738680	-0.684934	-7.442660	 70.067420	 1.383109	-2.385833	 28.452760	 0.000004	-1.651706	-1.810930	-177.726400	-1.466699	-11.385430	 0.651557	 7.091387	 69.745540	-1.201147	 2.384658	 28.388730	 0.000004	-22.690620	 2.418454	 0.249848	-2.052760	 4.718998	-0.695486	 6.207575	-5.875011	 1.421814	-91.776140	 78.527450	 180.000000	 48.685890	 36.804590	-61.798010	-18.273270	 1.278714	-6.104097	-46.178080	-36.870820	-13.753670	-2.635965	 4.993658	 6.788941	-5.165319	 0.784187	 3.516649	-5.225038	 0.466231	 0.424329	-0.000002	-3.783157	-0.089647	 5.989023	 4.032937	-0.211070	 89.782130	 78.203850	 180.000000	-59.461930	 39.529740	 59.490890	 15.761360	 8.841973	 18.207060	 48.909680	-37.248870	 19.236040	 6.112037	 4.509576	-0.364401	 4.968462	 1.518543	-9.347576	 5.168945	 0.703820	 2.021906
 0.000302	 0.019386	 1.277422	-0.001216	 0.006582	 0.167782	 1.699086	-1.751932	 177.422200	 1.476196	-11.719310	-0.683771	-7.420320	 69.889320	 1.365524	-2.385833	 28.452760	 0.000004	-1.863997	-1.819048	-177.709600	-1.466760	-11.379900	 0.651233	 7.072709	 69.575240	-1.185844	 2.384658	 28.388730	 0.000004	-25.290950	 2.360677	 0.238703	-2.005643	 4.919090	-0.664686	 6.063260	-6.141949	 1.404593	-91.776100	 78.527490	 179.999900	 48.696810	 36.750120	-61.605200	-19.864790	 1.640643	-6.972764	-48.836380	-38.517860	-15.811620	-2.635965	 4.993658	 6.788941	-5.165319	 0.784187	 3.516649	-5.225038	 0.466231	 0.424329	-0.000002	-3.783157	-0.089647	 5.839243	 3.927694	-0.200408	 89.782160	 78.203900	 179.999900	-58.147340	 38.831160	 60.908180	 16.702260	 9.784425	 19.513220	 51.833680	-39.021510	 21.373950	 6.112037	 4.509576	-0.364401	 4.968462	 1.518543	-9.347576	 5.168945	 0.703820	 2.021906
 0.000295	 0.019341	 1.278431	-0.000857	 0.007099	 0.163776	 1.916077	-1.753311	 177.410000	 1.476468	-11.697110	-0.682440	-7.397120	 69.706820	 1.347267	-2.385833	 28.452760	 0.000004	-2.068785	-1.827658	-177.692500	-1.466807	-11.375970	 0.651002	 7.068231	 69.402640	-1.173855	 2.384658	 28.388730	 0.000004	-27.685820	 2.303270	 0.227462	-1.949077	 5.117949	-0.631323	 5.890509	-6.408922	 1.379805	-91.776200	 78.527450	-180.000000	 48.705120	 36.687510	-61.404180	-21.413480	 2.041016	-7.804960	-51.305510	-39.555470	-17.725430	-2.635965	 4.993658	 6.788941	-5.165319	 0.784187	 3.516649	-5.225038	 0.466231	 0.424329	-0.000002	-3.783157	-0.089647	 5.662558	 3.825665	-0.189282	 89.782190	 78.203900	 179.999900	-56.814050	 38.141400	 62.927610	 17.707020	 10.304620	 20.057950	 54.514970	-40.213810	 23.351240	 6.112037	 4.509576	-0.364401	 4.968462	 1.518543	-9.347576	 5.168945	 0.703820	 2.021906
 0.000286	 0.019293	 1.279415	-0.000499	 0.007582	 0.158742	 2.147297	-1.754435	 177.397700	 1.476761	-11.672890	-0.680986	-7.358423	 69.521730	 1.325227	-2.385833	 28.452760	 0.000004	-2.287643	-1.838212	-177.673600	-1.466825	-11.374470	 0.650914	 7.049013	 69.229710	-1.158857	 2.384658	 28.388730	 0.000004	-29.843760	 2.246913	 0.216305	-1.883161	 5.313311	-0.595661	 5.689622	-6.672791	 1.347083	-91.776260	 78.527470	-179.999900	 48.710870	 36.618600	-61.195520	-22.907900	 2.476249	-8.599453	-53.471870	-39.978550	-19.352730	-2.635965	 4.993658	 6.788941	-5.165319	 0.784187	 3.516649	-5.225038	 0.466231	 0.424329	-0.000002	-3.783157	-0.089647	 5.459610	 3.727961	-0.177825	 89.782190	 78.203900	 179.999900	-55.432680	 37.399090	 65.010880	 18.507180	 10.747450	 20.512460	 56.638690	-40.900590	 24.941940	 6.112037	 4.509576	-0.364401	 4.968462	 1.518543	-9.347576	 5.168945	 0.703820	 2.021906
